<svg width="27" height="25" viewBox="0 0 27 25" fill="none" xmlns="http://www.w3.org/2000/svg">
<path d="M20.6719 0H6.32812C2.8332 0 0 2.62333 0 5.85938V19.1406C0 22.3767 2.8332 25 6.32812 25H20.6719C24.1668 25 27 22.3767 27 19.1406V5.85938C27 2.62333 24.1668 0 20.6719 0Z" fill="url(#paint0_linear_67_72)"/>
<path d="M20.6719 0H6.32812C2.8332 0 0 2.62333 0 5.85938V19.1406C0 22.3767 2.8332 25 6.32812 25H20.6719C24.1668 25 27 22.3767 27 19.1406V5.85938C27 2.62333 24.1668 0 20.6719 0Z" fill="url(#paint1_linear_67_72)"/>
<path d="M19.4817 21.2583H22.5687C22.6806 21.2583 22.7879 21.2172 22.867 21.1439C22.9461 21.0707 22.9906 20.9714 22.9906 20.8678L22.9922 14.8285C22.9922 11.672 22.2576 9.2457 18.2737 9.2457C16.7593 9.19355 15.3311 9.91641 14.5605 11.1234C14.5567 11.1293 14.551 11.1339 14.5442 11.1364C14.5373 11.139 14.5298 11.1394 14.5227 11.1376C14.5156 11.1358 14.5093 11.132 14.5048 11.1266C14.5003 11.1212 14.4978 11.1145 14.4977 11.1077V9.92773C14.4977 9.82413 14.4533 9.72478 14.3742 9.65152C14.2951 9.57826 14.1877 9.53711 14.0759 9.53711H11.1463C11.0344 9.53711 10.9271 9.57826 10.8479 9.65152C10.7688 9.72478 10.7244 9.82413 10.7244 9.92773V20.8672C10.7244 20.9708 10.7688 21.0701 10.8479 21.1434C10.9271 21.2167 11.0344 21.2578 11.1463 21.2578H14.2331C14.345 21.2578 14.4523 21.2167 14.5314 21.1434C14.6105 21.0701 14.655 20.9708 14.655 20.8672V15.4597C14.655 13.9307 14.9682 12.4499 17.0155 12.4499C19.0336 12.4499 19.0598 14.1995 19.0598 15.5587V20.8677C19.0598 20.9713 19.1042 21.0706 19.1833 21.1439C19.2625 21.2171 19.3698 21.2583 19.4817 21.2583ZM4.00781 5.82305C4.00781 6.98164 5.03793 7.93496 6.28931 7.93496C7.54038 7.93486 8.56986 6.98096 8.56986 5.82256C8.56965 4.66416 7.54007 3.71094 6.28889 3.71094C5.0374 3.71094 4.00781 4.66445 4.00781 5.82305ZM4.74177 21.2583H7.83274C7.94463 21.2583 8.05194 21.2171 8.13105 21.1439C8.21017 21.0706 8.25462 20.9713 8.25462 20.8677V9.92773C8.25462 9.82413 8.21017 9.72478 8.13105 9.65152C8.05194 9.57826 7.94463 9.53711 7.83274 9.53711H4.74177C4.62988 9.53711 4.52258 9.57826 4.44346 9.65152C4.36434 9.72478 4.31989 9.82413 4.31989 9.92773V20.8677C4.31989 20.9713 4.36434 21.0706 4.44346 21.1439C4.52258 21.2171 4.62988 21.2583 4.74177 21.2583Z" fill="white"/>
<defs>
<linearGradient id="paint0_linear_67_72" x1="13.5" y1="0" x2="13.5" y2="25" gradientUnits="userSpaceOnUse">
<stop stop-color="#D50080"/>
<stop offset="0.5" stop-color="#E10050"/>
<stop offset="1" stop-color="#E2192F"/>
</linearGradient>
<linearGradient id="paint1_linear_67_72" x1="13.5" y1="0" x2="13.5" y2="25" gradientUnits="userSpaceOnUse">
<stop stop-color="#D50080"/>
<stop offset="0.5" stop-color="#E10050"/>
<stop offset="1" stop-color="#E2192F"/>
</linearGradient>
</defs>
</svg>
