<svg width="255" height="28" viewBox="0 0 255 28" fill="none" xmlns="http://www.w3.org/2000/svg">
<g clip-path="url(#clip0_67_84)">
<path d="M132.187 16.8885L135.899 13.1762C136.502 12.5818 136.98 11.8742 137.308 11.094C137.636 10.3137 137.806 9.4764 137.809 8.63014C137.812 7.78388 137.647 6.94541 137.325 6.16302C137.002 5.38063 136.528 4.66978 135.93 4.07137C135.331 3.47297 134.62 2.99885 133.838 2.67631C133.056 2.35377 132.217 2.18918 131.371 2.19201C130.525 2.19485 129.687 2.36506 128.907 2.69283C128.127 3.02061 127.419 3.49948 126.825 4.10188L125.588 5.33854C125.421 5.4999 125.288 5.69294 125.196 5.9064C125.104 6.11986 125.056 6.34948 125.053 6.58184C125.051 6.8142 125.095 7.04466 125.183 7.25977C125.271 7.47488 125.401 7.67033 125.565 7.83472C125.73 7.99911 125.925 8.12914 126.14 8.21723C126.355 8.30533 126.585 8.34971 126.818 8.34781C127.05 8.3459 127.28 8.29773 127.493 8.20612C127.707 8.1145 127.9 7.98128 128.061 7.81421L129.3 6.57638C129.848 6.03343 130.589 5.72962 131.36 5.73141C132.132 5.73321 132.871 6.04047 133.416 6.58597C133.962 7.13146 134.269 7.87077 134.27 8.6421C134.272 9.41343 133.968 10.154 133.425 10.7017L129.712 14.414C129.311 14.8155 128.801 15.0911 128.246 15.2071C127.69 15.3232 127.113 15.2746 126.584 15.0674C126.396 14.9927 126.22 14.9165 126.055 14.8387L125.513 14.5855C124.79 14.2589 124.234 14.1189 123.525 14.8259C122.508 15.8432 122.772 16.7824 124.012 17.6375C125.247 18.4876 126.741 18.8782 128.235 18.7413C129.728 18.6045 131.126 17.949 132.187 16.8885ZM125.175 23.9002L126.412 22.6635C126.731 22.3336 126.907 21.8917 126.904 21.4328C126.9 20.974 126.716 20.535 126.392 20.2103C126.067 19.8857 125.629 19.7015 125.17 19.6973C124.711 19.6931 124.269 19.8693 123.938 20.1879L122.701 21.4245C122.432 21.7032 122.11 21.9255 121.754 22.0784C121.398 22.2314 121.016 22.312 120.628 22.3154C120.241 22.3189 119.857 22.2452 119.498 22.0987C119.14 21.9521 118.814 21.7356 118.54 21.4619C118.266 21.1881 118.05 20.8625 117.903 20.5041C117.756 20.1457 117.682 19.7616 117.686 19.3744C117.689 18.9871 117.769 18.6044 117.922 18.2485C118.075 17.8926 118.297 17.5707 118.575 17.3015L122.288 13.5892C122.689 13.1878 123.199 12.9122 123.754 12.7961C124.31 12.6801 124.887 12.7286 125.415 12.9359C125.604 13.0105 125.78 13.0868 125.945 13.1645L126.486 13.4177C127.21 13.7444 127.767 13.8844 128.474 13.1774C129.492 12.16 129.228 11.2209 127.988 10.3657C126.753 9.51563 125.258 9.12509 123.765 9.26191C122.272 9.39874 120.873 10.0543 119.813 11.1147L116.101 14.827C115.498 15.4214 115.02 16.1291 114.692 16.9093C114.364 17.6895 114.194 18.5269 114.191 19.3731C114.188 20.2194 114.353 21.0578 114.675 21.8402C114.998 22.6226 115.472 23.3335 116.07 23.9319C116.669 24.5303 117.38 25.0044 118.162 25.3269C118.944 25.6495 119.783 25.8141 120.629 25.8112C121.475 25.8084 122.313 25.6382 123.093 25.3104C123.873 24.9826 124.581 24.5026 125.175 23.9002Z" fill="url(#paint0_linear_67_84)"/>
</g>
<g clip-path="url(#clip1_67_84)">
<path d="M6.97606 11.1115L3.66147 14.8238C3.12362 15.4182 2.69605 16.1258 2.40339 16.906C2.11074 17.6863 1.95877 18.5236 1.95624 19.3699C1.95371 20.2161 2.10066 21.0546 2.38865 21.837C2.67663 22.6194 3.09995 23.3302 3.63424 23.9286C4.16853 24.527 4.80322 25.0011 5.50178 25.3237C6.20035 25.6462 6.94897 25.8108 7.70456 25.808C8.46015 25.8052 9.20778 25.6349 9.9044 25.3072C10.601 24.9794 11.2329 24.5005 11.7636 23.8981L12.8677 22.6615C13.017 22.5001 13.1361 22.3071 13.2181 22.0936C13.3001 21.8801 13.3433 21.6505 13.3452 21.4182C13.3471 21.1858 13.3077 20.9553 13.2292 20.7402C13.1507 20.5251 13.0348 20.3297 12.8881 20.1653C12.7415 20.0009 12.5671 19.8709 12.3751 19.7828C12.1831 19.6947 11.9774 19.6503 11.7699 19.6522C11.5625 19.6541 11.3574 19.7023 11.1667 19.7939C10.9761 19.8855 10.8036 20.0187 10.6594 20.1858L9.55314 21.4236C9.06396 21.9666 8.40268 22.2704 7.71399 22.2686C7.0253 22.2668 6.36528 21.9595 5.87837 21.414C5.39146 20.8685 5.1173 20.1292 5.11589 19.3579C5.11448 18.5866 5.38593 17.846 5.87085 17.2983L9.18543 13.586C9.54369 13.1845 9.99874 12.9089 10.4948 12.7929C10.9909 12.6768 11.5064 12.7254 11.9781 12.9326C12.1462 13.0073 12.3038 13.0835 12.4511 13.1613L12.9344 13.4145C13.5802 13.7411 14.0771 13.8811 14.7094 13.1741C15.6177 12.1568 15.3823 11.2176 14.275 10.3625C13.172 9.51237 11.838 9.12183 10.5046 9.25866C9.17125 9.39548 7.92279 10.051 6.97606 11.1115ZM13.2365 4.09979L12.1323 5.33645C11.8475 5.66636 11.6899 6.10833 11.6932 6.56718C11.6966 7.02603 11.8607 7.46504 12.1503 7.78966C12.4399 8.11427 12.8317 8.29853 13.2414 8.30273C13.651 8.30693 14.0458 8.13075 14.3406 7.81212L15.4458 6.57546C15.686 6.29681 15.9733 6.07452 16.291 5.92156C16.6087 5.7686 16.9504 5.68803 17.2961 5.68456C17.6419 5.68109 17.9849 5.75477 18.3049 5.90132C18.625 6.04788 18.9158 6.26435 19.1604 6.53813C19.405 6.81191 19.5984 7.1375 19.7295 7.4959C19.8605 7.85431 19.9265 8.23835 19.9236 8.62562C19.9207 9.0129 19.8489 9.39565 19.7125 9.75153C19.5761 10.1074 19.3778 10.4293 19.1292 10.6985L15.8146 14.4108C15.4563 14.8122 15.0013 15.0878 14.5052 15.2039C14.0092 15.3199 13.4937 15.2714 13.0219 15.0641C12.8538 14.9895 12.6962 14.9132 12.549 14.8355L12.0656 14.5823C11.4198 14.2556 10.9219 14.1156 10.2906 14.8226C9.38231 15.84 9.61772 16.7791 10.725 17.6343C11.828 18.4844 13.1621 18.8749 14.4954 18.7381C15.8288 18.6013 17.0772 17.9457 18.024 16.8853L21.3386 13.173C21.8764 12.5786 22.304 11.8709 22.5966 11.0907C22.8893 10.3105 23.0413 9.47315 23.0438 8.62688C23.0463 7.78062 22.8994 6.94216 22.6114 6.15977C22.3234 5.37738 21.9001 4.66652 21.3658 4.06812C20.8315 3.46972 20.1968 2.9956 19.4982 2.67306C18.7997 2.35051 18.0511 2.18592 17.2955 2.18876C16.5399 2.19159 15.7922 2.3618 15.0956 2.68957C14.399 3.01735 13.7672 3.49739 13.2365 4.09979Z" fill="url(#paint1_linear_67_84)"/>
</g>
<path d="M235.833 0C234.817 0 233.842 0.34241 233.123 0.951903C232.404 1.5614 232 2.38805 232 3.25V22.75C232 23.612 232.404 24.4386 233.123 25.0481C233.842 25.6576 234.817 26 235.833 26H251.167C252.183 26 253.158 25.6576 253.877 25.0481C254.596 24.4386 255 23.612 255 22.75V3.25C255 2.38805 254.596 1.5614 253.877 0.951903C253.158 0.34241 252.183 0 251.167 0L235.833 0ZM235.833 1.625H251.167C251.675 1.625 252.163 1.7962 252.522 2.10095C252.881 2.4057 253.083 2.81902 253.083 3.25V22.75C253.083 23.181 252.881 23.5943 252.522 23.899C252.163 24.2038 251.675 24.375 251.167 24.375H235.833C235.325 24.375 234.837 24.2038 234.478 23.899C234.119 23.5943 233.917 23.181 233.917 22.75V3.25C233.917 2.81902 234.119 2.4057 234.478 2.10095C234.837 1.7962 235.325 1.625 235.833 1.625Z" fill="url(#paint2_linear_67_84)"/>
<path d="M236.375 13H243.125C243.224 13 243.32 12.9473 243.39 12.8536C243.46 12.7598 243.5 12.6326 243.5 12.5C243.5 12.3674 243.46 12.2402 243.39 12.1464C243.32 12.0527 243.224 12 243.125 12H236.375C236.276 12 236.18 12.0527 236.11 12.1464C236.04 12.2402 236 12.3674 236 12.5C236 12.6326 236.04 12.7598 236.11 12.8536C236.18 12.9473 236.276 13 236.375 13ZM236.375 9H243.125C243.224 9 243.32 8.94732 243.39 8.85355C243.46 8.75979 243.5 8.63261 243.5 8.5C243.5 8.36739 243.46 8.24021 243.39 8.14645C243.32 8.05268 243.224 8 243.125 8H236.375C236.276 8 236.18 8.05268 236.11 8.14645C236.04 8.24021 236 8.36739 236 8.5C236 8.63261 236.04 8.75979 236.11 8.85355C236.18 8.94732 236.276 9 236.375 9ZM244.625 20H236.375C236.276 20 236.18 20.0527 236.11 20.1464C236.04 20.2402 236 20.3674 236 20.5C236 20.6326 236.04 20.7598 236.11 20.8536C236.18 20.9473 236.276 21 236.375 21H244.625C244.724 21 244.82 20.9473 244.89 20.8536C244.96 20.7598 245 20.6326 245 20.5C245 20.3674 244.96 20.2402 244.89 20.1464C244.82 20.0527 244.724 20 244.625 20ZM250.625 16H236.375C236.276 16 236.18 16.0527 236.11 16.1464C236.04 16.2402 236 16.3674 236 16.5C236 16.6326 236.04 16.7598 236.11 16.8536C236.18 16.9473 236.276 17 236.375 17H250.625C250.724 17 250.82 16.9473 250.89 16.8536C250.96 16.7598 251 16.6326 251 16.5C251 16.3674 250.96 16.2402 250.89 16.1464C250.82 16.0527 250.724 16 250.625 16ZM250.625 5H245.375C245.276 5 245.18 5.05268 245.11 5.14645C245.04 5.24021 245 5.36739 245 5.5V12.5C245 12.6326 245.04 12.7598 245.11 12.8536C245.18 12.9473 245.276 13 245.375 13H250.625C250.724 13 250.82 12.9473 250.89 12.8536C250.96 12.7598 251 12.6326 251 12.5V5.5C251 5.36739 250.96 5.24021 250.89 5.14645C250.82 5.05268 250.724 5 250.625 5ZM250.25 12H245.75V6H250.25V12Z" fill="url(#paint3_linear_67_84)"/>
<defs>
<linearGradient id="paint0_linear_67_84" x1="126" y1="25.8113" x2="126" y2="2.19198" gradientUnits="userSpaceOnUse">
<stop stop-color="#D50080"/>
<stop offset="0.598883" stop-color="#E10050"/>
<stop offset="1" stop-color="#E2192F"/>
</linearGradient>
<linearGradient id="paint1_linear_67_84" x1="12.5" y1="2.18872" x2="12.5" y2="25.808" gradientUnits="userSpaceOnUse">
<stop stop-color="#D50080"/>
<stop offset="0.5" stop-color="#E10050"/>
<stop offset="1" stop-color="#E2192F"/>
</linearGradient>
<linearGradient id="paint2_linear_67_84" x1="243.5" y1="0" x2="243.5" y2="26" gradientUnits="userSpaceOnUse">
<stop stop-color="#D50080"/>
<stop offset="0.5" stop-color="#E10050"/>
<stop offset="1" stop-color="#E2192F"/>
</linearGradient>
<linearGradient id="paint3_linear_67_84" x1="243.5" y1="5" x2="243.5" y2="21" gradientUnits="userSpaceOnUse">
<stop stop-color="#D50080"/>
<stop offset="0.5" stop-color="#E10050"/>
<stop offset="1" stop-color="#E2192F"/>
</linearGradient>
<clipPath id="clip0_67_84">
<rect width="28" height="28" fill="white" transform="matrix(1 0 0 -1 112 28)"/>
</clipPath>
<clipPath id="clip1_67_84">
<rect width="25" height="28" fill="white" transform="matrix(-1 0 0 1 25 0)"/>
</clipPath>
</defs>
</svg>
