<svg width="27" height="29" viewBox="0 0 27 29" fill="none" xmlns="http://www.w3.org/2000/svg">
<path d="M9 3.625C9.5625 3.625 11.8125 9.0625 11.8125 9.66667C11.8125 10.875 10.125 12.0833 9.5625 13.2917C9 14.5 10.125 15.7083 11.25 16.9167C11.6936 17.3931 13.5 19.3333 14.625 18.7292C15.75 18.125 16.875 16.3125 18 16.3125C18.5625 16.3125 23.625 18.7292 23.625 19.3333C23.625 21.75 21.9375 23.5625 20.25 24.1667C18.5625 24.7708 17.4375 24.7708 15.1875 24.1667C12.9375 23.5625 11.25 22.9583 8.4375 19.9375C5.625 16.9167 5.0625 15.1042 4.5 12.6875C3.9375 10.2708 3.9375 9.0625 4.5 7.25C5.0625 5.4375 6.75 3.625 9 3.625Z" stroke="url(#paint0_linear_67_61)" stroke-width="2" stroke-linecap="round" stroke-linejoin="round"/>
<path d="M15.75 8.51147C16.4934 8.87796 17.1642 9.38527 17.7327 10.0016C18.2864 10.6019 18.7432 11.3055 19.0755 12.0833" stroke="url(#paint1_linear_67_61)" stroke-width="2" stroke-linecap="round" stroke-linejoin="round"/>
<path d="M23.3415 10.8749C22.9358 9.18235 22.1142 7.6692 21.0006 6.46872C19.8792 5.2599 18.4618 4.36812 16.875 3.92944" stroke="url(#paint2_linear_67_61)" stroke-width="2" stroke-linecap="round" stroke-linejoin="round"/>
<defs>
<linearGradient id="paint0_linear_67_61" x1="13.8516" y1="3.625" x2="13.8516" y2="24.6198" gradientUnits="userSpaceOnUse">
<stop stop-color="#D50080"/>
<stop offset="0.5" stop-color="#E10050"/>
<stop offset="1" stop-color="#E2192F"/>
</linearGradient>
<linearGradient id="paint1_linear_67_61" x1="17.4127" y1="8.51147" x2="17.4127" y2="12.0833" gradientUnits="userSpaceOnUse">
<stop stop-color="#D50080"/>
<stop offset="0.5" stop-color="#E10050"/>
<stop offset="1" stop-color="#E2192F"/>
</linearGradient>
<linearGradient id="paint2_linear_67_61" x1="20.1082" y1="3.92944" x2="20.1082" y2="10.8749" gradientUnits="userSpaceOnUse">
<stop stop-color="#D50080"/>
<stop offset="0.5" stop-color="#E10050"/>
<stop offset="1" stop-color="#E2192F"/>
</linearGradient>
</defs>
</svg>
