<svg width="9" height="12" viewBox="0 0 9 12" fill="none" xmlns="http://www.w3.org/2000/svg">
<path d="M0.379684 5.28973L6.79762 0.29385C6.9173 0.200688 7.05938 0.126788 7.21575 0.0763693C7.37212 0.0259505 7.53972 0 7.70897 0C8.05079 0 8.37861 0.105701 8.62032 0.29385C8.74 0.387011 8.83493 0.49761 8.8997 0.619332C8.96447 0.741054 8.99781 0.871514 8.99781 1.00326C8.99781 1.26935 8.86202 1.52453 8.62032 1.71268L3.10089 5.99915L8.62032 10.2856C8.74063 10.3785 8.83612 10.489 8.90128 10.6108C8.96645 10.7325 9 10.8631 9 10.995C9 11.1269 8.96645 11.2575 8.90128 11.3793C8.83612 11.501 8.74063 11.6116 8.62032 11.7044C8.50099 11.7981 8.35902 11.8724 8.20261 11.9232C8.04619 11.9739 7.87842 12 7.70897 12C7.53952 12 7.37175 11.9739 7.21533 11.9232C7.05891 11.8724 6.91695 11.7981 6.79762 11.7044L0.379684 6.70856C0.259376 6.61568 0.163882 6.50517 0.0987158 6.38341C0.0335493 6.26165 0 6.13105 0 5.99915C0 5.86724 0.0335493 5.73665 0.0987158 5.61489C0.163882 5.49313 0.259376 5.38262 0.379684 5.28973Z" fill="white"/>
</svg>
